<?xml version="1.0" encoding="UTF-8" standalone="no"?>
<!-- Created with Inkscape (http://www.inkscape.org/) -->

<svg
   xmlns:dc="http://purl.org/dc/elements/1.1/"
   xmlns:cc="http://creativecommons.org/ns#"
   xmlns:rdf="http://www.w3.org/1999/02/22-rdf-syntax-ns#"
   xmlns:svg="http://www.w3.org/2000/svg"
   xmlns="http://www.w3.org/2000/svg"
   xmlns:sodipodi="http://sodipodi.sourceforge.net/DTD/sodipodi-0.dtd"
   xmlns:inkscape="http://www.inkscape.org/namespaces/inkscape"
   width="1080"
   height="1080"
   id="svg2"
   version="1.1"
   inkscape:version="0.48.2 r9819"
   sodipodi:docname="batterycompartment.pdf">
  <defs
     id="defs4" />
  <sodipodi:namedview
     id="base"
     pagecolor="#ffffff"
     bordercolor="#666666"
     borderopacity="1.0"
     inkscape:pageopacity="0.0"
     inkscape:pageshadow="2"
     inkscape:zoom="1"
     inkscape:cx="372.7635"
     inkscape:cy="233.3786"
     inkscape:document-units="px"
     inkscape:current-layer="layer1"
     showgrid="false"
     units="in"
     inkscape:snap-bbox="true"
     inkscape:snap-bbox-midpoints="true"
     inkscape:snap-bbox-edge-midpoints="false"
     inkscape:bbox-nodes="false"
     inkscape:snap-object-midpoints="true"
     inkscape:snap-midpoints="true"
     inkscape:object-nodes="true"
     inkscape:snap-global="false"
     showguides="true"
     inkscape:guide-bbox="true"
     inkscape:window-width="1360"
     inkscape:window-height="717"
     inkscape:window-x="0"
     inkscape:window-y="0"
     inkscape:window-maximized="1" />
  <metadata
     id="metadata7">
    <rdf:RDF>
      <cc:Work
         rdf:about="">
        <dc:format>image/svg+xml</dc:format>
        <dc:type
           rdf:resource="http://purl.org/dc/dcmitype/StillImage" />
        <dc:title></dc:title>
      </cc:Work>
    </rdf:RDF>
  </metadata>
  <g
     inkscape:label="Layer 1"
     inkscape:groupmode="layer"
     id="layer1"
     transform="translate(0,27.64025)">
    <path
       style="fill:none;stroke:#000000;stroke-width:0.08997624;stroke-miterlimit:4;stroke-opacity:1;stroke-dasharray:none"
       d="m 202.52628,0.0625 0,0.375 -12.0625,0 0,71.1875 15,15 0.1875,0.1875 c 0.82062,0.810523 1.34375,1.912909 1.34375,3.15625 0,2.469732 -2.02554,4.46875 -4.5,4.46875 -1.23723,0 -2.34546,-0.503255 -3.15625,-1.3125 l -3.0625,-3.0625 -187.18253,0 c -4.986,0 -9,4.014 -9,9 l 0,101.375 100.35813,0 c 5.07454,0 9.15625,4.08171 9.15625,9.15625 l 0,96.1875 c 0,5.07454 -4.08171,9.15625 -9.15625,9.15625 l -100.35813,0 0,65.5 100.35813,0 c 5.07454,0 9.15625,4.08171 9.15625,9.15625 l 0,96.1875 c 0,5.07454 -4.08171,9.15625 -9.15625,9.15625 l -94.48313,0 c -2.7171679,1.24157 -4.846274,3.54392 -5.875,6.375 l 0,72.875 c 0.76939933,4.20047 3.8630418,7.58875 7.90625,8.75 l 92.45188,0 c 5.07454,0 9.15625,4.08171 9.15625,9.15625 l 0,96.1875 c 0,5.07454 -4.08171,9.15625 -9.15625,9.15625 l -93.20188,0 c -3.6661526,1.34649 -6.43415996,4.53865 -7.15625,8.46875 l 0,48.09375 c 0.82336921,4.48132 4.3068058,8.02567 8.75,8.9375 l 91.60813,0 c 5.07454,0 9.15625,4.08171 9.15625,9.15625 l 0,96.1875 c 0,5.07454 -4.08171,9.15625 -9.15625,9.15625 l -91.42063,0 c -4.5327408,0.8491 -8.10256521,4.42448 -8.9375,8.96875 l 0,94.5 c 0,4.986 4.014,9 9,9 l 187.12003,0 3.09375,-3.09375 c 0.81079,-0.80924 1.91902,-1.3125 3.15625,-1.3125 2.47446,0 4.46875,1.99902 4.46875,4.46875 0,1.23487 -0.50171,2.34701 -1.3125,3.15625 l -15.1875,15.1875 0,71.1875 12.09375,0 0,0.4375 314.875,0 0,-0.4375 12.125,0 0,-71.1875 -15.1875,-15.1875 c -0.81079,-0.80924 -1.3125,-1.92138 -1.3125,-3.15625 0,-2.46973 1.99428,-4.46875 4.46875,-4.46875 1.22874,0 2.34681,0.51303 3.15625,1.3125 0.006,0.006 0.0257,-0.006 0.0312,0 l 0.125,0.15625 2.9375,2.9375 187.25312,0 c 4.986,0 9,-4.014 9,-9 l 0,-95.3125 c -0.9355,-3.93357 -3.92349,-7.04826 -7.78125,-8.15625 l -91.04872,0 c -5.07454,0 -9.15625,-4.08171 -9.15625,-9.15625 l 0,-96.1875 c 0,-5.07454 4.08171,-9.15625 9.15625,-9.15625 l 90.20497,0 c 4.25419,-0.87305 7.62328,-4.163 8.625,-8.375 l 0,-48.96875 c -0.9355,-3.93357 -3.92349,-7.04826 -7.78125,-8.15625 l -91.04872,0 c -5.07454,0 -9.15625,-4.08171 -9.15625,-9.15625 l 0,-96.1875 c 0,-5.07454 4.08171,-9.15625 9.15625,-9.15625 l 90.20497,0 c 4.25419,-0.87305 7.62328,-4.163 8.625,-8.375 l 0,-71.21875 c -1.01641,-4.27379 -4.4699,-7.59277 -8.8125,-8.40625 l -90.01747,0 c -5.07454,0 -9.15625,-4.08171 -9.15625,-9.15625 l 0,-96.1875 c 0,-5.07454 4.08171,-9.15625 9.15625,-9.15625 l 89.95497,0 c 4.73667,-0.97206 8.37907,-4.94344 8.875,-9.84375 l 0,-47.25 c -1.01641,-4.27379 -4.4699,-7.59277 -8.8125,-8.40625 l -90.01747,0 c -5.07454,0 -9.15625,-4.08171 -9.15625,-9.15625 l 0,-96.1875 c 0,-5.07454 4.08171,-9.15625 9.15625,-9.15625 l 89.95497,0 c 4.73667,-0.97206 8.37907,-4.94344 8.875,-9.84375 l 0,-91.53125 c 0,-4.986 -4.014,-9 -9,-9 l -187.28437,0 -2.90625,2.90625 -0.15625,0.15625 c -0.80944,0.799474 -1.92751,1.3125 -3.15625,1.3125 -2.47447,0 -4.46875,-1.999018 -4.46875,-4.46875 0,-1.234866 0.50171,-2.347005 1.3125,-3.15625 l 15.1875,-15.1875 0,-71.1875 -12.125,0 0,-0.375 z M 28.125,174.40625 c 3.063849,0 5.53125,2.49762 5.53125,5.5625 0,3.06488 -2.467401,5.5625 -5.53125,5.5625 -3.063849,0 -5.5625,-2.49762 -5.5625,-5.5625 0,-3.06488 2.498651,-5.5625 5.5625,-5.5625 z m 663.7794,0 c 3.06385,0 5.53125,2.49762 5.53125,5.5625 0,3.06488 -2.4674,5.5625 -5.53125,5.5625 -3.06385,0 -5.5625,-2.49762 -5.5625,-5.5625 0,-3.06488 2.49865,-5.5625 5.5625,-5.5625 z m -663.7794,157.5 c 3.063849,0 5.53125,2.49762 5.53125,5.5625 0,3.06488 -2.467401,5.5625 -5.53125,5.5625 -3.063849,0 -5.5625,-2.49762 -5.5625,-5.5625 0,-3.06488 2.498651,-5.5625 5.5625,-5.5625 z m 663.7794,0 c 3.06385,0 5.53125,2.49762 5.53125,5.5625 0,3.06488 -2.4674,5.5625 -5.53125,5.5625 -3.06385,0 -5.5625,-2.49762 -5.5625,-5.5625 0,-3.06488 2.49865,-5.5625 5.5625,-5.5625 z M 28.125,534.46875 c 3.063849,0 5.53125,2.46637 5.53125,5.53125 0,3.06488 -2.467401,5.5625 -5.53125,5.5625 -3.063849,0 -5.5625,-2.49762 -5.5625,-5.5625 0,-3.06488 2.498651,-5.53125 5.5625,-5.53125 z m 663.7794,0 c 3.06385,0 5.53125,2.46637 5.53125,5.53125 0,3.06488 -2.4674,5.5625 -5.53125,5.5625 -3.06385,0 -5.5625,-2.49762 -5.5625,-5.5625 0,-3.06488 2.49865,-5.53125 5.5625,-5.53125 z M 28.125,736.90625 c 3.063849,0 5.53125,2.49762 5.53125,5.5625 0,3.06488 -2.467401,5.5625 -5.53125,5.5625 -3.063849,0 -5.5625,-2.49762 -5.5625,-5.5625 0,-3.06488 2.498651,-5.5625 5.5625,-5.5625 z m 663.7794,0 c 3.06385,0 5.53125,2.49762 5.53125,5.5625 0,3.06488 -2.4674,5.5625 -5.53125,5.5625 -3.06385,0 -5.5625,-2.49762 -5.5625,-5.5625 0,-3.06488 2.49865,-5.5625 5.5625,-5.5625 z m -663.7794,157.5 c 3.063849,0 5.53125,2.49762 5.53125,5.5625 0,3.06488 -2.467401,5.5625 -5.53125,5.5625 -3.063849,0 -5.5625,-2.49762 -5.5625,-5.5625 0,-3.06488 2.498651,-5.5625 5.5625,-5.5625 z m 663.7794,0 c 3.06385,0 5.53125,2.49762 5.53125,5.5625 0,3.06488 -2.4674,5.5625 -5.53125,5.5625 -3.06385,0 -5.5625,-2.49762 -5.5625,-5.5625 0,-3.06488 2.49865,-5.5625 5.5625,-5.5625 z"
       transform="translate(0,-27.64025)"
       id="rect3902"
       inkscape:connector-curvature="0"
       sodipodi:nodetypes="ccccccssccsscssssccssssccccssssccccssssccssccssccccccccccssccccssccssssccccssssccccssssccccssssccsscccssccccccssssssssssssssssssssssssssssssssssssssssssssssssss" />
  </g>
</svg>
