<?xml version="1.0" encoding="UTF-8" standalone="no"?>
<!-- Created with Inkscape (http://www.inkscape.org/) -->

<svg
   xmlns:dc="http://purl.org/dc/elements/1.1/"
   xmlns:cc="http://creativecommons.org/ns#"
   xmlns:rdf="http://www.w3.org/1999/02/22-rdf-syntax-ns#"
   xmlns:svg="http://www.w3.org/2000/svg"
   xmlns="http://www.w3.org/2000/svg"
   xmlns:sodipodi="http://sodipodi.sourceforge.net/DTD/sodipodi-0.dtd"
   xmlns:inkscape="http://www.inkscape.org/namespaces/inkscape"
   width="990"
   height="765"
   id="svg2"
   version="1.1"
   inkscape:version="0.48.3.1 r9886"
   sodipodi:docname="New document 1">
  <defs
     id="defs4" />
  <sodipodi:namedview
     id="base"
     pagecolor="#ffffff"
     bordercolor="#666666"
     borderopacity="1.0"
     inkscape:pageopacity="0.0"
     inkscape:pageshadow="2"
     inkscape:zoom="1"
     inkscape:cx="493.94425"
     inkscape:cy="250.55574"
     inkscape:document-units="px"
     inkscape:current-layer="layer1"
     showgrid="false"
     inkscape:window-width="1600"
     inkscape:window-height="1154"
     inkscape:window-x="0"
     inkscape:window-y="0"
     inkscape:window-maximized="1" />
  <metadata
     id="metadata7">
    <rdf:RDF>
      <cc:Work
         rdf:about="">
        <dc:format>image/svg+xml</dc:format>
        <dc:type
           rdf:resource="http://purl.org/dc/dcmitype/StillImage" />
        <dc:title></dc:title>
      </cc:Work>
    </rdf:RDF>
  </metadata>
  <g
     inkscape:label="Layer 1"
     inkscape:groupmode="layer"
     id="layer1"
     transform="translate(0,-287.36218)">
    <path
       style="fill:#adc371;fill-opacity:0.73451329;stroke:#000000;stroke-width:1;stroke-miterlimit:6;stroke-opacity:1;stroke-dasharray:none"
       d="m 490,175 0,32 -4,0 0,-1 -126,0 0,63 38.40625,0 C 398.13493,270.46005 398,271.96134 398,273.5 c 0,13.53098 10.96902,24.5 24.5,24.5 13.53098,0 24.5,-10.96902 24.5,-24.5 0,-1.53866 -0.13493,-3.03995 -0.40625,-4.5 L 519,269 l 74,-62 0,0 c 0,13.80712 11.19288,25 25,25 13.80712,0 25,-11.19288 25,-25 l 0,-32 -25,0 z m 129.5,25 c 5.24671,0 9.5,4.25329 9.5,9.5 0,5.24671 -4.25329,9.5 -9.5,9.5 -5.24671,0 -9.5,-4.25329 -9.5,-9.5 0,-5.24671 4.25329,-9.5 9.5,-9.5 z M 423,219 c 4.41828,0 8,3.58172 8,8 0,4.41828 -3.58172,8 -8,8 -4.41828,0 -8,-3.58172 -8,-8 0,-4.41828 3.58172,-8 8,-8 z m -0.5,43 c 6.35127,0 11.5,5.14873 11.5,11.5 0,6.35127 -5.14873,11.5 -11.5,11.5 -6.35127,0 -11.5,-5.14873 -11.5,-11.5 0,-6.35127 5.14873,-11.5 11.5,-11.5 z"
       transform="translate(0,287.36218)"
       id="path3780-9"
       inkscape:connector-curvature="0"
       sodipodi:nodetypes="cccccccsssccccsscccsssssssssssssss" />
    <path
       style="opacity:0.96000001;fill:#69c180;fill-opacity:0.76106196;stroke:#000000;stroke-width:1;stroke-miterlimit:6;stroke-opacity:1;stroke-dasharray:none"
       d="m 388,90 0,157.71875 70.875,0 0,-157.71875 z m 35,129 c 4.41828,0 8,3.58172 8,8 0,4.41828 -3.58172,8 -8,8 -4.41828,0 -8,-3.58172 -8,-8 0,-4.41828 3.58172,-8 8,-8 z"
       transform="translate(0,287.36218)"
       id="rect3870"
       inkscape:connector-curvature="0"
       sodipodi:nodetypes="cccccsssss" />
    <rect
       style="fill:#7cc6d4;fill-opacity:1;stroke:#000000;stroke-width:1;stroke-miterlimit:6;stroke-opacity:1;stroke-dasharray:none"
       id="rect2985"
       width="131.10236"
       height="255.1181"
       x="598.19684"
       y="-490.11023"
       transform="matrix(0,1,-1,0,0,0)" />
    <rect
       style="fill:#7cc6d4;fill-opacity:1;stroke:#000000;stroke-width:1;stroke-miterlimit:6;stroke-opacity:1;stroke-dasharray:none"
       id="rect3755"
       width="86"
       height="44.29134"
       x="619.19684"
       y="-535.11023"
       transform="matrix(0,1,-1,0,0,0)" />
    <rect
       style="fill:#7cc6d4;fill-opacity:1;stroke:#000000;stroke-width:1;stroke-miterlimit:6;stroke-opacity:1;stroke-dasharray:none"
       id="rect3757"
       width="42.519684"
       height="23.031496"
       x="661.19684"
       y="-235.11021"
       transform="matrix(0,1,-1,0,0,0)" />
    <rect
       style="fill:#7cc6d4;fill-opacity:1;stroke:#000000;stroke-width:1;stroke-miterlimit:6;stroke-opacity:1;stroke-dasharray:none"
       id="rect3759"
       width="21.259842"
       height="42.519684"
       x="670.19684"
       y="-211.11021"
       transform="matrix(0,1,-1,0,0,0)" />
    <rect
       style="fill:#c370ab;fill-opacity:0.69911505;stroke:#000000;stroke-width:1;stroke-miterlimit:6;stroke-opacity:1;stroke-dasharray:none"
       id="rect3769"
       width="49.6063"
       height="77.952759"
       x="656.19684"
       y="-210.11023"
       transform="matrix(0,1,-1,0,0,0)" />
    <rect
       style="fill:#000000;fill-opacity:0.2964602;stroke:#000000;stroke-width:1;stroke-miterlimit:6;stroke-opacity:1;stroke-dasharray:none"
       id="rect3767"
       width="595.27557"
       height="240.94489"
       x="392.19684"
       y="-308.11023"
       transform="matrix(0,1,-1,0,0,0)" />
    <path
       style="fill:#71c393;fill-opacity:0.81415927;stroke:#000000;stroke-width:1;stroke-miterlimit:6;stroke-opacity:1;stroke-dasharray:none"
       d="m 227,728.36218 0,-134 0,-5 0,-1 260,0 0,6 -255,0 0,134 -5,0 z"
       id="rect3775"
       inkscape:connector-curvature="0" />
    <path
       style="fill:#c371bd;fill-opacity:1;stroke:#000000;stroke-width:1;stroke-miterlimit:6;stroke-opacity:1;stroke-dasharray:none"
       d="M 371 264 L 371 309 L 360 309 L 360 320 L 389 320 L 389 309 L 377 309 L 377 264 L 371 264 z "
       transform="translate(0,287.36218)"
       id="rect3794" />
    <rect
       style="fill:#c371bd;fill-opacity:1;stroke:#000000;stroke-width:1;stroke-miterlimit:6;stroke-opacity:1;stroke-dasharray:none"
       id="rect3799"
       width="28"
       height="10"
       x="361"
       y="268"
       transform="translate(0,287.36218)" />
    <path
       inkscape:connector-curvature="0"
       style="fill:#c371bd;fill-opacity:1;stroke:#000000;stroke-width:1;stroke-miterlimit:6;stroke-opacity:1;stroke-dasharray:none"
       d="m 464.5,552.36218 0,45 -11,0 0,11 29,0 0,-11 -12,0 0,-45 -6,0 z"
       id="rect3794-0" />
    <rect
       style="fill:#c371bd;fill-opacity:1;stroke:#000000;stroke-width:1;stroke-miterlimit:6;stroke-opacity:1;stroke-dasharray:none"
       id="rect3799-5"
       width="28"
       height="10"
       x="454.5"
       y="556.36218" />
    <path
       style="fill:none;stroke:#000000;stroke-width:1px;stroke-linecap:butt;stroke-linejoin:miter;stroke-opacity:1"
       d="m 620,497.36218 0,58 17,5 -31,5 30,5 -29,7 28,3 -17,4 0,64"
       id="path3916"
       inkscape:connector-curvature="0"
       sodipodi:nodetypes="ccccccccc" />
    <path
       style="fill:#adc371;fill-opacity:0.73333333;stroke:#000000;stroke-width:1;stroke-miterlimit:6;stroke-opacity:1;stroke-dasharray:none"
       d="m 422.5,250 c -13.53098,0 -24.5,10.96902 -24.5,24.5 0,1.53866 0.13493,3.03995 0.40625,4.5 L 364,279 l 0,21 129,0 0,87 124,0 24,0 0,-24 0,-5 -0.53125,0 C 638.17051,347.14228 628.54219,339 617,339 c -11.54219,0 -21.17051,8.14228 -23.46875,19 L 595,358 518,279 446.59375,279 C 446.86507,277.53995 447,276.03866 447,274.5 447,260.96902 436.03098,250 422.5,250 z m 0,13 c 6.35127,0 11.5,5.14873 11.5,11.5 0,6.35127 -5.14873,11.5 -11.5,11.5 -6.35127,0 -11.5,-5.14873 -11.5,-11.5 0,-6.35127 5.14873,-11.5 11.5,-11.5 z M 617,354.5 c 5.24671,0 9.5,4.25329 9.5,9.5 0,5.24671 -4.25329,9.5 -9.5,9.5 -5.24671,0 -9.5,-4.25329 -9.5,-9.5 0,-5.24671 4.25329,-9.5 9.5,-9.5 z"
       transform="translate(0,287.36218)"
       id="path3780"
       inkscape:connector-curvature="0"
       sodipodi:nodetypes="ssccccccccccsccccssssssssssss" />
    <path
       style="opacity:0.96000001000000001;fill:#c19c69;fill-opacity:0.52654868;stroke:#000000;stroke-width:1;stroke-miterlimit:6;stroke-opacity:1;stroke-dasharray:none"
       d="M 422 258 C 413.16344 258 406 265.16344 406 274 C 406 282.83656 413.16344 290 422 290 C 430.83656 290 438 282.83656 438 274 C 438 265.16344 430.83656 258 422 258 z M 422.5 265.90625 C 427.24463 265.90625 431.09375 269.75537 431.09375 274.5 C 431.09375 279.24463 427.24463 283.09375 422.5 283.09375 C 417.75537 283.09375 413.90625 279.24463 413.90625 274.5 C 413.90625 269.75537 417.75537 265.90625 422.5 265.90625 z "
       transform="translate(0,287.36218)"
       id="path3862" />
    <rect
       style="opacity:0.96000001;fill:#718dc3;fill-opacity:0.81415926;stroke:#000000;stroke-width:1;stroke-miterlimit:6;stroke-opacity:1;stroke-dasharray:none"
       id="rect3880"
       width="124.01575"
       height="35.433071"
       x="365"
       y="458.36218" />
    <rect
       style="opacity:0.96000001;fill:#718dc3;fill-opacity:0.81415926;stroke:#000000;stroke-width:1;stroke-miterlimit:6;stroke-opacity:1;stroke-dasharray:none"
       id="rect3882"
       width="95.669289"
       height="70.866142"
       x="377"
       y="386.36218" />
    <path
       style="opacity:0.96000001;fill:#c370aa;fill-opacity:0.69803993;stroke:#000000;stroke-width:1;stroke-miterlimit:6;stroke-opacity:1;stroke-dasharray:none"
       d="m 411,354.36218 0,15 -32,0 0,8 91,0 0,-8 -33,0 0,-15 -26,0 z"
       id="rect3884"
       inkscape:connector-curvature="0" />
    <rect
       style="opacity:0.96000001;fill:#c371aa;fill-opacity:0.69803993;stroke:#000000;stroke-width:1;stroke-miterlimit:6;stroke-opacity:1;stroke-dasharray:none"
       id="rect3889"
       width="482"
       height="34.015747"
       x="336"
       y="422.36218" />
    <flowRoot
       xml:space="preserve"
       id="flowRoot3891"
       style="font-size:12px;font-style:normal;font-variant:normal;font-weight:normal;font-stretch:normal;text-align:start;line-height:125%;letter-spacing:0px;word-spacing:0px;writing-mode:lr-tb;text-anchor:start;fill:#000000;fill-opacity:1;stroke:none;font-family:Sans;-inkscape-font-specification:Sans"
       transform="translate(-236,281.36218)"><flowRegion
         id="flowRegion3893"><rect
           id="rect3895"
           width="166"
           height="39"
           x="509"
           y="185" /></flowRegion><flowPara
         id="flowPara3897">Thrust bearing</flowPara></flowRoot>    <flowRoot
       xml:space="preserve"
       id="flowRoot3899"
       style="font-size:12px;font-style:normal;font-variant:normal;font-weight:normal;font-stretch:normal;text-align:start;line-height:125%;letter-spacing:0px;word-spacing:0px;writing-mode:lr-tb;text-anchor:start;fill:#000000;fill-opacity:1;stroke:none;font-family:Sans;-inkscape-font-specification:Sans"
       transform="translate(-200,286.36218)"><flowRegion
         id="flowRegion3901"><rect
           id="rect3903"
           width="242"
           height="52"
           x="479"
           y="102" /></flowRegion><flowPara
         id="flowPara3905">Needle bearing</flowPara></flowRoot>    <flowRoot
       xml:space="preserve"
       id="flowRoot3961"
       style="font-size:12px;font-style:normal;font-variant:normal;font-weight:normal;font-stretch:normal;text-align:start;line-height:125%;letter-spacing:0px;word-spacing:0px;writing-mode:lr-tb;text-anchor:start;fill:#000000;fill-opacity:1;stroke:none;font-family:Sans;-inkscape-font-specification:Sans"
       transform="translate(20,287.36218)"><flowRegion
         id="flowRegion3963"><rect
           id="rect3965"
           width="88"
           height="24"
           x="284"
           y="66" /></flowRegion><flowPara
         id="flowPara3967">Servo horn</flowPara></flowRoot>  </g>
</svg>
