<?xml version="1.0" encoding="UTF-8" standalone="no"?>
<!-- Created with Inkscape (http://www.inkscape.org/) -->

<svg
   xmlns:dc="http://purl.org/dc/elements/1.1/"
   xmlns:cc="http://creativecommons.org/ns#"
   xmlns:rdf="http://www.w3.org/1999/02/22-rdf-syntax-ns#"
   xmlns:svg="http://www.w3.org/2000/svg"
   xmlns="http://www.w3.org/2000/svg"
   xmlns:sodipodi="http://sodipodi.sourceforge.net/DTD/sodipodi-0.dtd"
   xmlns:inkscape="http://www.inkscape.org/namespaces/inkscape"
   width="990"
   height="765"
   id="svg2"
   version="1.1"
   inkscape:version="0.48.3.1 r9886"
   sodipodi:docname="small-walker-lasercut.pdf">
  <defs
     id="defs4" />
  <sodipodi:namedview
     id="base"
     pagecolor="#ffffff"
     bordercolor="#666666"
     borderopacity="1.0"
     inkscape:pageopacity="0.0"
     inkscape:pageshadow="2"
     inkscape:zoom="1"
     inkscape:cx="398.25003"
     inkscape:cy="339.78125"
     inkscape:document-units="in"
     inkscape:current-layer="layer1"
     showgrid="false"
     units="in"
     inkscape:window-width="1600"
     inkscape:window-height="1154"
     inkscape:window-x="0"
     inkscape:window-y="0"
     inkscape:window-maximized="1" />
  <metadata
     id="metadata7">
    <rdf:RDF>
      <cc:Work
         rdf:about="">
        <dc:format>image/svg+xml</dc:format>
        <dc:type
           rdf:resource="http://purl.org/dc/dcmitype/StillImage" />
        <dc:title></dc:title>
      </cc:Work>
    </rdf:RDF>
  </metadata>
  <g
     inkscape:label="Layer 1"
     inkscape:groupmode="layer"
     id="layer1"
     transform="translate(0,-287.359)">
    <g
       id="g4029"
       transform="translate(31,-110)">
      <path
         inkscape:connector-curvature="0"
         id="rect3759"
         d="m 128.25,780.109 0,216 216,0 0,-70.90625 C 323.64278,855.75428 269.00343,800.951 199.65625,780.109 l -71.40625,0 z"
         style="fill:none;stroke:#000000;stroke-width:0.5;stroke-miterlimit:4;stroke-opacity:1;stroke-dasharray:none" />
      <path
         transform="matrix(0.58420491,0,0,0.55345728,111.62668,811.21237)"
         d="m 74,295.5 a 9,9.5 0 1 1 -18,0 9,9.5 0 1 1 18,0 z"
         sodipodi:ry="9.5"
         sodipodi:rx="9"
         sodipodi:cy="295.5"
         sodipodi:cx="65"
         id="path3765"
         style="fill:none;stroke:#000000;stroke-width:0.5;stroke-miterlimit:4;stroke-opacity:1;stroke-dasharray:none"
         sodipodi:type="arc" />
      <path
         transform="matrix(0.58420491,0,0,0.55345728,116.12668,644.71237)"
         d="m 74,295.5 a 9,9.5 0 1 1 -18,0 9,9.5 0 1 1 18,0 z"
         sodipodi:ry="9.5"
         sodipodi:rx="9"
         sodipodi:cy="295.5"
         sodipodi:cx="65"
         id="path3765-5"
         style="fill:none;stroke:#000000;stroke-width:0.5;stroke-miterlimit:4;stroke-opacity:1;stroke-dasharray:none"
         sodipodi:type="arc" />
    </g>
    <g
       id="g4034"
       transform="translate(-25,-111)">
      <path
         inkscape:connector-curvature="0"
         id="rect3759-2"
         d="m 662,780.359 0,216 -216,0 0,-70.90625 C 466.60722,856.00428 521.24657,801.201 590.59375,780.359 l 71.40625,0 z"
         style="fill:none;stroke:#000000;stroke-width:0.5;stroke-miterlimit:4;stroke-opacity:1;stroke-dasharray:none" />
      <path
         transform="matrix(-0.58420491,0,0,0.55345728,678.62332,811.46237)"
         d="m 74,295.5 a 9,9.5 0 1 1 -18,0 9,9.5 0 1 1 18,0 z"
         sodipodi:ry="9.5"
         sodipodi:rx="9"
         sodipodi:cy="295.5"
         sodipodi:cx="65"
         id="path3765-7"
         style="fill:none;stroke:#000000;stroke-width:0.5;stroke-miterlimit:4;stroke-opacity:1;stroke-dasharray:none"
         sodipodi:type="arc" />
      <path
         transform="matrix(-0.58420491,0,0,0.55345728,665.12332,644.96237)"
         d="m 74,295.5 a 9,9.5 0 1 1 -18,0 9,9.5 0 1 1 18,0 z"
         sodipodi:ry="9.5"
         sodipodi:rx="9"
         sodipodi:cy="295.5"
         sodipodi:cx="65"
         id="path3765-5-0"
         style="fill:none;stroke:#000000;stroke-width:0.5;stroke-miterlimit:4;stroke-opacity:1;stroke-dasharray:none"
         sodipodi:type="arc" />
    </g>
    <g
       id="g3920"
       transform="matrix(-1,0,0,-1,790.5,1366.218)">
      <path
         sodipodi:nodetypes="sscsssccssscsss"
         inkscape:connector-curvature="0"
         id="rect3809"
         d="m 369.25,738.109 c -12.465,0 -22.5,10.035 -22.5,22.5 l 0,22.5 -324,0 c -12.465,0 -22.5,10.035 -22.5,22.5 0,12.465 10.035,22.5 22.5,22.5 l 346.5,0 45,0 346.5,0 c 12.465,0 22.5,-10.035 22.5,-22.5 0,-12.465 -10.035,-22.5 -22.5,-22.5 l -324,0 0,-22.5 c 0,-12.465 -10.035,-22.5 -22.5,-22.5 z"
         style="fill:none;stroke:#000000;stroke-width:0.5;stroke-miterlimit:4;stroke-opacity:1;stroke-dasharray:none" />
      <rect
         ry="5.4000001"
         rx="5.4000001"
         y="758.10901"
         x="386.35001"
         height="54"
         width="10.8"
         id="rect3815"
         style="fill:none;stroke:#000000;stroke-width:0.5;stroke-miterlimit:4;stroke-opacity:1;stroke-dasharray:none" />
      <path
         transform="matrix(0.58420491,0,0,0.55345728,-19.073319,643.21237)"
         d="m 74,295.5 a 9,9.5 0 1 1 -18,0 9,9.5 0 1 1 18,0 z"
         sodipodi:ry="9.5"
         sodipodi:rx="9"
         sodipodi:cy="295.5"
         sodipodi:cx="65"
         id="path3765-5-0-7"
         style="fill:none;stroke:#000000;stroke-width:0.5;stroke-miterlimit:4;stroke-opacity:1;stroke-dasharray:none"
         sodipodi:type="arc" />
      <path
         transform="matrix(0.58420491,0,0,0.55345728,718.92668,643.21237)"
         d="m 74,295.5 a 9,9.5 0 1 1 -18,0 9,9.5 0 1 1 18,0 z"
         sodipodi:ry="9.5"
         sodipodi:rx="9"
         sodipodi:cy="295.5"
         sodipodi:cx="65"
         id="path3765-5-0-7-1"
         style="fill:none;stroke:#000000;stroke-width:0.5;stroke-miterlimit:4;stroke-opacity:1;stroke-dasharray:none"
         sodipodi:type="arc" />
    </g>
    <g
       id="g4039"
       transform="translate(2,227)">
      <path
         inkscape:connector-curvature="0"
         id="rect3817"
         d="m 400.25003,705.70275 c -136.05462,0 -268.58195,7.75024 -396.0000047,22.34375 -5.7e-5,0.021 0,0.0415 0,0.0625 l 0,67.5 c 0,11.45911 8.4782117,20.86913 19.5312497,22.3125 41.341611,-29.27513 100.357005,-47.59375 165.875005,-47.59375 65.65717,0 124.77088,18.39731 166.125,47.78125 l 8.90625,0 0,-55.78125 c 0,-2.493 2.007,-4.5 4.5,-4.5 l 62.125,0 c 2.493,0 4.5,2.007 4.5,4.5 l 0,55.78125 8.90625,0 c 41.35471,-29.38915 100.49241,-47.78125 166.15625,-47.78125 65.51214,0 124.50268,18.3232 165.84375,47.59375 11.05304,-1.44337 19.53125,-10.85339 19.53125,-22.3125 l 0,-67.5 c 0,-0.021 6e-5,-0.0415 0,-0.0625 -127.41805,-14.59351 -259.94538,-22.34375 -396,-22.34375 z"
         style="fill:none;stroke:#000000;stroke-width:0.5;stroke-miterlimit:4;stroke-opacity:1;stroke-dasharray:none" />
      <path
         transform="matrix(0.58420491,0,0,0.55345728,-1.573319,598.81237)"
         d="m 74,295.5 a 9,9.5 0 1 1 -18,0 9,9.5 0 1 1 18,0 z"
         sodipodi:ry="9.5"
         sodipodi:rx="9"
         sodipodi:cy="295.5"
         sodipodi:cx="65"
         id="path3765-5-0-7-9"
         style="fill:none;stroke:#000000;stroke-width:0.5;stroke-miterlimit:4;stroke-opacity:1;stroke-dasharray:none"
         sodipodi:type="arc" />
      <path
         transform="matrix(0.58420491,0,0,0.55345728,709.42668,598.81237)"
         d="m 74,295.5 a 9,9.5 0 1 1 -18,0 9,9.5 0 1 1 18,0 z"
         sodipodi:ry="9.5"
         sodipodi:rx="9"
         sodipodi:cy="295.5"
         sodipodi:cx="65"
         id="path3765-5-0-7-1-5"
         style="fill:none;stroke:#000000;stroke-width:0.5;stroke-miterlimit:4;stroke-opacity:1;stroke-dasharray:none"
         sodipodi:type="arc" />
    </g>
    <g
       id="g4024"
       transform="translate(54,245)">
      <path
         sodipodi:nodetypes="sscsccssssccssscs"
         inkscape:connector-curvature="0"
         transform="translate(0,287.359)"
         id="rect3959"
         d="M 22.78125,89.6875 C 10.299691,89.6875 0.25,98.9544 0.25,110.4375 l 0,1.8125 0,271.78125 c 0,11.12425 9.4067682,20.1344 21.34375,20.6875 0.384553,0.0194 0.766719,0.0312 1.15625,0.0312 0.01025,10e-6 0.021,3.1e-4 0.03125,0 L 319.75,395.73 c 12.45925,-0.37843 22.5,-1.015 22.5,-13.48 0,-12.465 -10.04167,-13.11234 -22.5,-13.52 l -274.4375,-8.98 0,-225 274.4375,-9.02 c 12.45827,-0.40947 22.5,-1.015 22.5,-13.48 0,-12.465 -10.04075,-13.141294 -22.5,-13.52 L 24.3125,89.75 c -0.507698,-0.03117 -1.014676,-0.0625 -1.53125,-0.0625 z"
         style="fill:none;stroke:#000000;stroke-width:0.5;stroke-miterlimit:4;stroke-opacity:1;stroke-dasharray:none" />
      <path
         transform="matrix(1.6827202,0,0,1.9231087,-15.527054,79.77646)"
         d="m 25.005542,202.00758 a 2.9418285,2.5741 0 1 1 -5.883657,0 2.9418285,2.5741 0 1 1 5.883657,0 z"
         sodipodi:ry="2.5741"
         sodipodi:rx="2.9418285"
         sodipodi:cy="202.00758"
         sodipodi:cx="22.063713"
         id="path4009"
         style="fill:none;stroke:#000000;stroke-width:0.5;stroke-miterlimit:4;stroke-opacity:1;stroke-dasharray:none"
         sodipodi:type="arc" />
      <path
         sodipodi:type="arc"
         style="fill:none;stroke:#000000;stroke-width:0.5;stroke-miterlimit:4;stroke-opacity:1;stroke-dasharray:none"
         id="path4022"
         sodipodi:cx="22.063713"
         sodipodi:cy="202.00758"
         sodipodi:rx="2.9418285"
         sodipodi:ry="2.5741"
         d="m 25.005542,202.00758 a 2.9418285,2.5741 0 1 1 -5.883657,0 2.9418285,2.5741 0 1 1 5.883657,0 z"
         transform="matrix(1.6827202,0,0,1.9231087,-15.527054,202.17646)" />
    </g>
    <g
       id="g4044"
       transform="matrix(-1,0,0,1,744.5,244)">
      <path
         style="fill:none;stroke:#000000;stroke-width:0.5;stroke-miterlimit:4;stroke-opacity:1;stroke-dasharray:none"
         d="M 22.78125,89.6875 C 10.299691,89.6875 0.25,98.9544 0.25,110.4375 l 0,1.8125 0,271.78125 c 0,11.12425 9.4067682,20.1344 21.34375,20.6875 0.384553,0.0194 0.766719,0.0312 1.15625,0.0312 0.01025,10e-6 0.021,3.1e-4 0.03125,0 L 319.75,395.73 c 12.45925,-0.37843 22.5,-1.015 22.5,-13.48 0,-12.465 -10.04167,-13.11234 -22.5,-13.52 l -274.4375,-8.98 0,-225 274.4375,-9.02 c 12.45827,-0.40947 22.5,-1.015 22.5,-13.48 0,-12.465 -10.04075,-13.141294 -22.5,-13.52 L 24.3125,89.75 c -0.507698,-0.03117 -1.014676,-0.0625 -1.53125,-0.0625 z"
         id="path4046"
         transform="translate(0,287.359)"
         inkscape:connector-curvature="0"
         sodipodi:nodetypes="sscsccssssccssscs" />
      <path
         sodipodi:type="arc"
         style="fill:none;stroke:#000000;stroke-width:0.5;stroke-miterlimit:4;stroke-opacity:1;stroke-dasharray:none"
         id="path4048"
         sodipodi:cx="22.063713"
         sodipodi:cy="202.00758"
         sodipodi:rx="2.9418285"
         sodipodi:ry="2.5741"
         d="m 25.005542,202.00758 a 2.9418285,2.5741 0 1 1 -5.883657,0 2.9418285,2.5741 0 1 1 5.883657,0 z"
         transform="matrix(1.6827202,0,0,1.9231087,-15.527054,79.77646)" />
      <path
         transform="matrix(1.6827202,0,0,1.9231087,-15.527054,202.17646)"
         d="m 25.005542,202.00758 a 2.9418285,2.5741 0 1 1 -5.883657,0 2.9418285,2.5741 0 1 1 5.883657,0 z"
         sodipodi:ry="2.5741"
         sodipodi:rx="2.9418285"
         sodipodi:cy="202.00758"
         sodipodi:cx="22.063713"
         id="path4050"
         style="fill:none;stroke:#000000;stroke-width:0.5;stroke-miterlimit:4;stroke-opacity:1;stroke-dasharray:none"
         sodipodi:type="arc" />
    </g>
  </g>
</svg>
